<svg width="480" height="208" viewBox="0 0 480 208" fill="none" xmlns="http://www.w3.org/2000/svg">
<path d="M480 42.0867V128.7C458.499 139.316 442.125 151.666 430.877 165.749C420.125 179.291 415.125 193.375 415.877 208H399.374V198.576C399.374 194.891 399.998 191.749 401.246 189.149L404.251 182.162L407.626 175.338L418.498 159.413C422.75 153.562 427.251 148.47 432 144.138C434.499 141.754 438.998 138.667 445.498 134.876L459.374 125.938L463.502 120.576L465 114.887C465.499 107.953 464.624 98.7993 462.374 87.4245L451.123 43.8755C446.874 26.434 444.374 11.8089 443.626 0H476.251C476.002 8.55851 476.126 15.6 476.626 21.1245C477.125 28.8163 478.25 35.8037 480 42.0867ZM480 145.113V187.687C478.499 190.613 477.374 193.971 476.626 197.762L475.502 208H444L443.626 190.124C443.626 182.975 444.501 177.071 446.251 172.413C447.752 168.188 452.376 163.476 460.123 158.276L480 145.113ZM380.251 208H362.626L364.498 190.611L369 173.224C372.251 163.583 375.251 156.108 378 150.8C382.25 142.674 387.626 135.524 394.128 129.349L406.128 116.838L413.626 103.676L416.251 93.2755C416.501 89.3748 415.376 86.0163 412.877 83.2L397.123 63.3755L381.379 43.551C375.376 35.1007 371 27.9503 368.251 22.1C364.501 14.1918 362.626 6.82517 362.626 0H380.251C380.501 11.8089 384.376 23.617 391.877 35.4245C399.374 46.9089 410.123 57.851 424.123 68.251L414.379 45.3378L405.374 22.4245L401.246 11.3755L399.005 0H415.882L417.005 9.42448L419.63 18.851L431.63 52.651L443.256 86.6133C446.504 97.8799 446.754 108.713 444.005 119.113L441.005 125.936C439.254 128.429 436.755 130.488 433.507 132.113L424.507 136.176C421.006 137.801 418.381 139.317 416.63 140.724C411.382 144.517 406.758 149.934 402.758 156.976L391.128 173.713C386.629 178.587 383.629 184.221 382.128 190.613C380.88 194.947 380.251 200.742 380.251 208ZM349.507 208H309.744C302.992 194.241 300.243 181.187 301.498 168.838C302.746 162.013 305.619 156.325 310.118 151.776L324.374 136.176C328.87 130.325 331.619 124.855 332.621 119.764C333.619 115.972 332.995 112.288 330.749 108.713C328.496 105.029 324.744 101.67 319.493 98.6378C311.995 94.3044 302.747 89.917 291.749 85.4755L287.246 90.6755L283.118 96.2C275.621 105.625 267.746 113.913 259.493 121.062C249.493 129.729 238.245 137.259 225.749 143.651C220.997 146.792 216.87 150.475 213.37 154.7C210.87 157.95 208.496 161.958 206.246 166.724C200.749 178.641 198 192.4 198 208H166.877L168.374 182.487C169.622 173.171 172.246 164.667 176.246 156.976C181.75 146.792 189.501 138.883 199.498 133.249L210.749 128.049L222 122.849C230 118.733 236.25 113.967 240.749 108.549C244.998 103.459 247.374 98.0963 247.877 92.4622C248.376 85.3126 247 76.6459 243.749 66.4622L234.749 40.7888C230.499 25.4051 229.002 11.8089 230.256 0H278.63C276.63 16.9007 279.63 32.2303 287.63 45.9888C295.381 58.7711 309.005 70.0378 328.502 79.7888L352.502 90.6755C362.253 95.117 369.253 99.1252 373.502 102.7C382.005 109.525 383.506 118.03 378.005 128.213C374.754 134.604 368.504 142.133 359.256 150.8C355.506 154.375 352.63 158.438 350.63 162.989C348.88 166.455 347.63 170.68 346.882 175.662C345.63 185.738 346.509 196.517 349.507 208ZM278.63 208H230.251V186.062C231.25 177.83 233.998 170.626 238.498 164.451C252.248 146.9 268.499 131.083 287.251 117L295.877 110.662L306 104.813C310 111.313 308.25 119.329 300.749 128.862C282.749 152.37 275.373 178.75 278.621 208M138 208H86.2512L87.3744 195.976L89.6256 183.949L102 136.989L113.626 90.0266C117.376 73.3436 114.376 58.231 104.626 44.6888C99.1248 48.914 94.3744 54.114 90.3744 60.2888L80.6256 76.5398C79.1248 78.9235 78.2496 81.8487 78 85.3154L78.3744 94.0888L75.7488 117.164L67.1232 138.94C62.3744 149.013 59.376 156.27 58.128 160.713C56.88 164.504 56.3808 168.946 56.6304 174.038L57.7536 187.362L59.6256 197.762C60.3776 201.663 61.504 205.076 63.0048 208H27.7488V169L27.3744 156.487C14.1264 165.587 5.0016 175.717 0 186.876V144.464C18.752 129.946 30.6272 114.237 35.6256 97.3378C39.6256 84.6636 39.7504 68.4674 36 48.749L30.7488 24.3776C29.0016 14.8429 28.0016 6.71701 27.7488 0H63L69.7488 23.5622L75 47.1245C79 43.766 81.8752 39.5956 83.6256 34.6133L86.6256 21.6133L87 10.8867L86.2512 0H138.379C138.626 4.11701 139.749 8.93776 141.749 14.4622L147.374 28.6L155.246 51.6755C157.25 60.234 157.501 67.9799 156 74.9133C154.25 80.8718 151 87.5881 146.251 95.0622L132 114.562C125.501 123.879 121.75 133.954 120.749 144.787C120.499 149.987 121.499 155.783 123.749 162.176L131.251 179.238L134.626 174.2L156.374 135.362C163.875 121.063 169.626 108.009 173.626 96.2C175.626 90.6755 176.626 84.3925 176.626 77.351L175.123 58.3378L169.877 29.251C167.627 17.4422 166.627 7.69184 166.877 0H198C197.75 12.4578 200.875 26.1082 207.374 40.951L215.246 59.151C218.248 66.1925 219.749 72.2592 219.749 77.351C219.749 82.6592 218.125 87.8592 214.877 92.951C211.875 98.0415 207.374 102.807 201.374 107.249C186.622 120.249 174.123 134.441 163.877 149.827C154.875 163.259 147.25 178.1 141 194.349C138.75 199.549 137.75 204.099 138 208ZM0 128.538V41.1133L3.7488 50.2133L7.1232 59.4755L18.3744 88.5622L19.5024 91.8133L20.6256 96.6867C23.1248 107.955 16.2496 118.572 0 128.538ZM310.128 0H349.498C348.25 10.0755 348.501 18.3629 350.251 24.8622L354.379 34.2867L360.379 43.7133L377.626 72.151L393.754 100.587L396.374 106.113L397.123 111.638L385.877 98.3133C381.374 93.4378 376.499 89.1585 371.251 85.4755L351.379 71.6643L330.749 58.0133C326.998 55.3051 323.998 52.1089 321.749 48.4245C319.998 45.8245 318.499 42.4119 317.251 38.1867C313.251 25.8371 310.88 13.1082 310.128 0Z" fill="#ABABAB"/>
</svg>
